<?xml version="1.0" encoding="utf-8"?>
<!-- Generator: Adobe Illustrator 26.3.1, SVG Export Plug-In . SVG Version: 6.00 Build 0)  -->
<svg version="1.1" xmlns="http://www.w3.org/2000/svg" xmlns:xlink="http://www.w3.org/1999/xlink" x="0px" y="0px"
	 viewBox="0 0 216.5 316.5" style="enable-background:new 0 0 216.5 316.5;" xml:space="preserve">
<style type="text/css">
	.st0{display:none;}
	.st1{fill:#74139D;}
	.st2{fill:#FFFFFF;}
	.st3{display:none;fill:#E718ED;}
</style>
<g id="Ebene_1" class="st0">
	
		<image style="display:inline;overflow:visible;" width="1060" height="1060" xlink:href="5591E999.jpg"  transform="matrix(0.4528 0 0 0.4528 -129 -69.5)">
	</image>
</g>
<g id="Ebene_2">
	<g>
		<path class="st1" d="M215.4,92.3c-11-100-113-91.6-113-91.6l0,0.2C75,2.3,10.1,13.9,1.5,92.5c-11,100,107,224,107,224l0-0.3
			C112.9,311.6,226.2,190.4,215.4,92.3z"/>
		<circle class="st2" cx="108.5" cy="110" r="71.5"/>
	</g>
	<path class="st3" d="M106,4.5L106,4.5C47.3,5.5,0,47.5,0,106.5c0,27.6,1.2,37.6,18,80c6.1,15.3,12.1,30.3,34,64
		c8.1,12.5,18.1,26.5,30,42c5.7,7.4,13.1,15.3,18,21c2.9,3.3,4.2,6,6,6.8v0c1.8-0.8,3.1-3.5,6-6.8c4.9-5.7,12.3-13.6,18-21
		c11.9-15.5,21.9-29.5,30-42c21.9-33.7,27.9-48.7,34-64c16.8-42.4,18-52.4,18-80C212,47.5,164.7,5.5,106,4.5z"/>
</g>
</svg>
